<svg version="1.1" xmlns="http://www.w3.org/2000/svg" viewBox="0 0 819.2356231851616 1347.81994047619" width="1638.4712463703231" height="2695.63988095238" filter="invert(93%) hue-rotate(180deg)">
  <!-- svg-source:excalidraw -->
  
  <defs>
    <style class="style-fonts">
      @font-face {
        font-family: "Virgil";
        src: url("https://excalidraw.com/Virgil.woff2");
      }
      @font-face {
        font-family: "Cascadia";
        src: url("https://excalidraw.com/Cascadia.woff2");
      }
      @font-face {
        font-family: "Assistant";
        src: url("https://excalidraw.com/Assistant-Regular.woff2");
      }
    </style>
    
  </defs>
  <g stroke-linecap="round" transform="translate(452.9856231851613 82.4255952380945) rotate(0 178.1250000000001 256.25000000000006)"><path d="M32 0 C124.95 -4.25, 216.28 -5.32, 324.25 0 M32 0 C90.58 2.86, 149.01 2.97, 324.25 0 M324.25 0 C345.48 0.5, 356.95 9.19, 356.25 32 M324.25 0 C342.02 2.7, 356.79 12.14, 356.25 32 M356.25 32 C354.36 174.82, 354.85 322.1, 356.25 480.5 M356.25 32 C352.67 182.37, 351.64 333.56, 356.25 480.5 M356.25 480.5 C355.62 498.75, 344.16 511.1, 324.25 512.5 M356.25 480.5 C355.3 499.37, 342.85 511.9, 324.25 512.5 M324.25 512.5 C235.72 508.91, 147.94 509.17, 32 512.5 M324.25 512.5 C227.9 515.57, 133.27 513.52, 32 512.5 M32 512.5 C11.63 514.74, 3.91 503.34, 0 480.5 M32 512.5 C14.95 513.21, -3.03 506.26, 0 480.5 M0 480.5 C2.36 352.51, 3.53 226.07, 0 32 M0 480.5 C0.66 306.53, 0.45 130.8, 0 32 M0 32 C-2.22 9.77, 8.95 1.38, 32 0 M0 32 C-3.85 10.97, 8.74 -0.53, 32 0" stroke="#1e1e1e" stroke-width="4" fill="none"></path></g><g stroke-linecap="round" transform="translate(481.7356231851615 114.9255952380945) rotate(0 150 88.12499999999999)"><path d="M32 0 C115.52 -0.86, 197.29 3.09, 268 0 M32 0 C89.75 -0.54, 147.42 -0.96, 268 0 M268 0 C290.03 -1.47, 296.9 13.02, 300 32 M268 0 C289.87 1.47, 300.98 9.63, 300 32 M300 32 C298.07 61.17, 300.36 78.59, 300 144.25 M300 32 C300.89 74.78, 301.27 113.52, 300 144.25 M300 144.25 C298.58 164.18, 288.51 174.11, 268 176.25 M300 144.25 C297.26 164.98, 289.17 174.82, 268 176.25 M268 176.25 C209.45 174.81, 158.51 177.3, 32 176.25 M268 176.25 C185.42 177.48, 103.7 179.67, 32 176.25 M32 176.25 C14.57 177.76, 3.72 166.2, 0 144.25 M32 176.25 C7.64 180.68, -0.81 163.3, 0 144.25 M0 144.25 C2.59 104.28, 3.32 68.09, 0 32 M0 144.25 C-0.43 110.32, -1.13 79.82, 0 32 M0 32 C-1.72 12.05, 7.32 0.26, 32 0 M0 32 C-1.92 10.14, 13.28 1.74, 32 0" stroke="#1e1e1e" stroke-width="4" fill="none"></path></g><g stroke-linecap="round" transform="translate(481.7356231851615 315.5505952380945) rotate(0 150 126.2500000000001)"><path d="M32 0 C85.64 4.52, 144.13 3.93, 268 0 M32 0 C109.72 -1.26, 187.81 -2.09, 268 0 M268 0 C286.24 2.35, 300.47 11.94, 300 32 M268 0 C290.31 -1.03, 296.55 8.5, 300 32 M300 32 C300.6 72.23, 301.98 123.13, 300 220.5 M300 32 C298.38 84.94, 297.98 140.26, 300 220.5 M300 220.5 C299.18 239.69, 286.95 251.98, 268 252.5 M300 220.5 C299.84 240.41, 286.29 249.63, 268 252.5 M268 252.5 C203.68 253.9, 139.24 249.73, 32 252.5 M268 252.5 C182.81 250.47, 98.45 250.16, 32 252.5 M32 252.5 C14.39 253.11, -2.63 245.68, 0 220.5 M32 252.5 C9.86 250.22, 1.68 242.3, 0 220.5 M0 220.5 C0.89 176, -3.26 132.73, 0 32 M0 220.5 C-0.34 155.68, -0.09 92.45, 0 32 M0 32 C-3.35 10.93, 8.99 -0.46, 32 0 M0 32 C2.61 12.4, 11.75 -1.18, 32 0" stroke="#1e1e1e" stroke-width="4" fill="none"></path></g><g transform="translate(510.8894775552787 139.9255952380945) rotate(0 38.34614562988281 17.5)"><text x="38.34614562988281" y="24.528" font-family="Virgil, Segoe UI Emoji" font-size="28px" fill="#1e1e1e" text-anchor="middle" style="white-space: pre;" direction="ltr" dominant-baseline="alphabetic">main()</text></g><g transform="translate(510.0557373209037 353.6755952380945) rotate(0 106.67988586425781 12.5)"><text x="106.67988586425781" y="17.52" font-family="Virgil, Segoe UI Emoji" font-size="20px" fill="#1e1e1e" text-anchor="middle" style="white-space: pre;" direction="ltr" dominant-baseline="alphabetic">copyPointerAsReturn()</text></g><g stroke-linecap="round" transform="translate(504.2356231851615 407.4255952380945) rotate(0 123.125 21.25)"><path d="M10.63 0 C80.59 -0.14, 148.43 0.55, 235.63 0 M10.63 0 C70.03 -1.72, 129.4 -2.66, 235.63 0 M235.63 0 C239.71 -1.88, 243.62 2.67, 246.25 10.63 M235.63 0 C247.21 1.63, 241.74 6.76, 246.25 10.63 M246.25 10.63 C248.7 17.88, 243.12 24.96, 246.25 31.88 M246.25 10.63 C244.97 16, 246.09 21.27, 246.25 31.88 M246.25 31.88 C243.6 36.46, 241.76 38.5, 235.63 42.5 M246.25 31.88 C245.57 40.17, 245.44 44.75, 235.63 42.5 M235.63 42.5 C180.17 42.8, 131.77 45.32, 10.63 42.5 M235.63 42.5 C158.52 44.74, 83.37 42.24, 10.63 42.5 M10.63 42.5 C5.01 42.91, -2.68 41.78, 0 31.88 M10.63 42.5 C1.03 46.58, -0.68 38.27, 0 31.88 M0 31.88 C-4.05 23.26, -1.07 17.36, 0 10.63 M0 31.88 C-0.48 24.53, 1.49 18.41, 0 10.63 M0 10.63 C0.94 2.51, -0.18 -0.78, 10.63 0 M0 10.63 C-0.3 3.6, 3.87 -2.57, 10.63 0" stroke="#e03131" stroke-width="4" fill="none"></path></g><g transform="translate(550.7307098550834 416.1755952380945) rotate(0 76.62991333007812 12.5)"><text x="76.62991333007812" y="17.52" font-family="Virgil, Segoe UI Emoji" font-size="20px" fill="#e03131" text-anchor="middle" style="white-space: pre;" direction="ltr" dominant-baseline="alphabetic">underlying array</text></g><g stroke-linecap="round" transform="translate(504.2356231851615 488.6755952380945) rotate(0 124.375 19.375)"><path d="M9.69 0 C76.66 -3.32, 148.14 -0.28, 239.06 0 M9.69 0 C84.55 0.08, 160.84 0.51, 239.06 0 M239.06 0 C249.43 1.42, 244.83 6.03, 248.75 9.69 M239.06 0 C248.77 -0.5, 247.15 6.1, 248.75 9.69 M248.75 9.69 C247.1 14.4, 246.37 18.4, 248.75 29.06 M248.75 9.69 C247.46 14.04, 248.28 18.87, 248.75 29.06 M248.75 29.06 C248.16 36.58, 247.89 40.71, 239.06 38.75 M248.75 29.06 C245.76 38.4, 244.89 35.3, 239.06 38.75 M239.06 38.75 C165.99 45.73, 90.88 40.32, 9.69 38.75 M239.06 38.75 C148.79 36.99, 56.13 38.01, 9.69 38.75 M9.69 38.75 C1.04 42.3, -0.6 34.92, 0 29.06 M9.69 38.75 C3.28 40.66, -0.94 31.07, 0 29.06 M0 29.06 C1.43 21.08, 0.34 17.97, 0 9.69 M0 29.06 C0.23 22.97, -2.02 17.51, 0 9.69 M0 9.69 C-0.26 3.28, 3.52 -2.23, 9.69 0 M0 9.69 C-4.18 6.86, 7.75 1.75, 9.69 0" stroke="#f08c00" stroke-width="4" fill="none"></path></g><g transform="translate(519.8107498331108 495.5505952380945) rotate(0 108.79987335205078 12.5)"><text x="108.79987335205078" y="17.52" font-family="Virgil, Segoe UI Emoji" font-size="20px" fill="#f08c00" text-anchor="middle" style="white-space: pre;" direction="ltr" dominant-baseline="alphabetic">slice referencing array</text></g><g stroke-linecap="round"><g transform="translate(304.2356231851613 553.0505952380945) rotate(0 63.33333333333337 0.4166666666666856)"><path d="M0.33 0.89 C21.9 0.65, 106.56 0.43, 127.26 0.2 M-2.94 -1.09 C18.51 -1.05, 103.15 2.99, 125.35 3.49" stroke="#2f9e44" stroke-width="4" fill="none"></path></g><g transform="translate(304.2356231851613 553.0505952380945) rotate(0 63.33333333333337 0.4166666666666856)"><path d="M102.2 11.62 C106.36 7.95, 111.17 6.42, 124.91 5.45 M102.27 11.08 C109.27 9.07, 117.44 5.09, 124.99 3.14" stroke="#2f9e44" stroke-width="4" fill="none"></path></g><g transform="translate(304.2356231851613 553.0505952380945) rotate(0 63.33333333333337 0.4166666666666856)"><path d="M102.82 -5.47 C106.94 -5.34, 111.61 -3.06, 124.91 5.45 M102.89 -6.01 C109.51 -2.29, 117.48 -0.53, 124.99 3.14" stroke="#2f9e44" stroke-width="4" fill="none"></path></g></g><mask></mask><g transform="translate(300.5123667561248 565.5505952380945) rotate(0 65.38992309570312 12.5)"><text x="65.38992309570312" y="17.52" font-family="Virgil, Segoe UI Emoji" font-size="20px" fill="#2f9e44" text-anchor="middle" style="white-space: pre;" direction="ltr" dominant-baseline="alphabetic">stack pointer</text></g><g stroke-linecap="round"><g transform="translate(503.2832422327804 510.5505952380945) rotate(0 -185.17857142857144 -166.07142857142856)"><path d="M-2.1 -1.32 C-33.84 -10.1, -128.9 1.62, -189.82 -53.35 C-250.74 -108.32, -337.07 -285.01, -367.62 -331.15 M1.96 4.14 C-28.93 -4.16, -122.77 6.66, -184.42 -50.05 C-246.07 -106.77, -336.34 -288.62, -367.94 -336.14" stroke="#f08c00" stroke-width="4" fill="none"></path></g><g transform="translate(503.2832422327804 510.5505952380945) rotate(0 -185.17857142857144 -166.07142857142856)"><path d="M-349.67 -321.45 C-355.31 -323.47, -360.33 -332.52, -366.54 -334.73 M-348.89 -320.91 C-354.58 -324.99, -359.99 -329.8, -368.54 -336.27" stroke="#f08c00" stroke-width="4" fill="none"></path></g><g transform="translate(503.2832422327804 510.5505952380945) rotate(0 -185.17857142857144 -166.07142857142856)"><path d="M-364.45 -312.85 C-365.32 -317.52, -365.59 -329.34, -366.54 -334.73 M-363.67 -312.31 C-365.06 -318.97, -366.19 -326.27, -368.54 -336.27" stroke="#f08c00" stroke-width="4" fill="none"></path></g></g><mask></mask><g transform="translate(579.4836013956105 27.21726190476147) rotate(0 49.75202178955078 22.5)"><text x="49.75202178955078" y="31.536" font-family="Virgil, Segoe UI Emoji" font-size="36px" fill="#1e1e1e" text-anchor="middle" style="white-space: pre;" direction="ltr" dominant-baseline="alphabetic">stack</text></g><g stroke-linecap="round" transform="translate(16.709493442672795 73.39285714285722) rotate(0 123.83928571428572 256.25000000000006)"><path d="M32 0 C74.59 -3.76, 114.77 -6.35, 215.68 0 M32 0 C100.77 -1.83, 168.23 -1.48, 215.68 0 M215.68 0 C234.52 1.38, 246.62 12.33, 247.68 32 M215.68 0 C234.79 1.93, 251.92 14.53, 247.68 32 M247.68 32 C251.53 154.85, 248.33 279.93, 247.68 480.5 M247.68 32 C242.69 149.17, 243.51 264.18, 247.68 480.5 M247.68 480.5 C250.59 500.27, 236.32 511.07, 215.68 512.5 M247.68 480.5 C247.28 500, 232.72 512.96, 215.68 512.5 M215.68 512.5 C138.72 516.22, 71.77 518.82, 32 512.5 M215.68 512.5 C142.86 514.01, 73.93 515.9, 32 512.5 M32 512.5 C9.65 515.92, -0.24 500.56, 0 480.5 M32 512.5 C7.52 511.6, -0.82 501.67, 0 480.5 M0 480.5 C1.65 389.36, 2.52 296.33, 0 32 M0 480.5 C3.63 308.23, 3.14 136.28, 0 32 M0 32 C2.88 14.11, 7.63 1.75, 32 0 M0 32 C-1.12 10.93, 11.11 2.68, 32 0" stroke="#1e1e1e" stroke-width="4" fill="none"></path></g><g transform="translate(102.35933911092042 10) rotate(0 39.618011474609375 22.5)"><text x="39.618011474609375" y="31.536" font-family="Virgil, Segoe UI Emoji" font-size="36px" fill="#1e1e1e" text-anchor="middle" style="white-space: pre;" direction="ltr" dominant-baseline="alphabetic">heap</text></g><g stroke-linecap="round" transform="translate(33.138064871243955 125.5357142857141) rotate(0 104.55357142857147 20.535714285714334)"><path d="M10.27 0 C47.83 -6.22, 93.96 -0.84, 198.84 0 M10.27 0 C70.28 1.68, 127.2 0.26, 198.84 0 M198.84 0 C204.1 -1.38, 207.63 0.11, 209.11 10.27 M198.84 0 C201.85 4.17, 207.55 3.88, 209.11 10.27 M209.11 10.27 C208 15.89, 210.98 19.73, 209.11 30.8 M209.11 10.27 C210.86 15.97, 211.42 19.9, 209.11 30.8 M209.11 30.8 C210.27 39.46, 208.7 42.51, 198.84 41.07 M209.11 30.8 C209.3 41.01, 203.3 45.36, 198.84 41.07 M198.84 41.07 C142.51 43.19, 84.05 42.32, 10.27 41.07 M198.84 41.07 C134.85 38.8, 70.67 40.14, 10.27 41.07 M10.27 41.07 C1.61 39.9, 0.2 36, 0 30.8 M10.27 41.07 C0.3 39.02, 2.57 33.49, 0 30.8 M0 30.8 C2.88 25.18, -1.34 16.2, 0 10.27 M0 30.8 C-1.62 24.86, 0.54 18.38, 0 10.27 M0 10.27 C-2.38 5.22, 5.14 -3.96, 10.27 0 M0 10.27 C3.62 6.42, 1.37 4.55, 10.27 0" stroke="#1e1e1e" stroke-width="4" fill="none"></path></g><g transform="translate(61.061722969737275 133.57142857142844) rotate(0 76.6299133300781 12.5)"><text x="76.62991333007812" y="17.52" font-family="Virgil, Segoe UI Emoji" font-size="20px" fill="#1e1e1e" text-anchor="middle" style="white-space: pre;" direction="ltr" dominant-baseline="alphabetic">underlying array</text></g><g stroke-linecap="round"><g transform="translate(501.9773505855298 423.92857142857144) rotate(0 -129.28571428571428 -137.8571428571429)"><path d="M-0.01 0.54 C-21.69 -34.45, -84.64 -162.03, -127.85 -208.5 C-171.06 -254.97, -237.09 -267.12, -259.28 -278.3 M-3.47 -1.64 C-24.47 -36.27, -79.61 -159.01, -122.61 -204.84 C-165.61 -250.66, -238.29 -265.24, -261.47 -276.59" stroke="#e03131" stroke-width="4" fill="none"></path></g><g transform="translate(501.9773505855298 423.92857142857144) rotate(0 -129.28571428571428 -137.8571428571429)"><path d="M-236.09 -278 C-245.88 -277.02, -257.24 -278.28, -261.37 -277.77 M-236.09 -276.62 C-241.2 -276.33, -247.74 -276.42, -261.82 -276.48" stroke="#e03131" stroke-width="4" fill="none"></path></g><g transform="translate(501.9773505855298 423.92857142857144) rotate(0 -129.28571428571428 -137.8571428571429)"><path d="M-242.01 -261.96 C-249.64 -267.05, -258.76 -274.38, -261.37 -277.77 M-242.01 -260.58 C-245.92 -263.97, -251.12 -267.7, -261.82 -276.48" stroke="#e03131" stroke-width="4" fill="none"></path></g></g><mask></mask><g transform="translate(297.82512127644776 120.35714285714278) rotate(0 54.15222930908203 17.5)"><text x="54.15222930908203" y="24.528" font-family="Virgil, Segoe UI Emoji" font-size="28px" fill="#e03131" text-anchor="middle" style="white-space: pre;" direction="ltr" dominant-baseline="alphabetic">escaped</text></g><g stroke-linecap="round" transform="translate(446.27612974248854 825.3199404761899) rotate(0 178.1250000000001 256.25)"><path d="M32 0 C120.45 -1.3, 208.1 -4.93, 324.25 0 M32 0 C135.87 -2.37, 239.05 -3.84, 324.25 0 M324.25 0 C348.42 0.3, 358.69 10.82, 356.25 32 M324.25 0 C344.59 0.68, 353.04 10.73, 356.25 32 M356.25 32 C353.36 158.63, 354.47 287.39, 356.25 480.5 M356.25 32 C354.28 186.67, 352.84 342.42, 356.25 480.5 M356.25 480.5 C352.4 500.19, 346.1 511.51, 324.25 512.5 M356.25 480.5 C354.79 503.82, 348.56 509.58, 324.25 512.5 M324.25 512.5 C250.74 515.36, 174.4 517.16, 32 512.5 M324.25 512.5 C250.23 517.93, 176.12 516.26, 32 512.5 M32 512.5 C8.07 513.82, -0.55 500.44, 0 480.5 M32 512.5 C13.67 508.97, 2.51 506.15, 0 480.5 M0 480.5 C4.43 345.32, 2.51 213.22, 0 32 M0 480.5 C3.66 371.73, 2.87 263.79, 0 32 M0 32 C2.24 12.48, 9.05 -3.95, 32 0 M0 32 C-2.98 15.05, 13.1 1.22, 32 0" stroke="#1e1e1e" stroke-width="4" fill="none"></path></g><g stroke-linecap="round" transform="translate(475.02612974248876 857.8199404761899) rotate(0 150 88.12499999999997)"><path d="M32 0 C117.3 -4.34, 202.94 -0.78, 268 0 M32 0 C116.68 -1.66, 200.44 0.11, 268 0 M268 0 C291.78 0.15, 299.13 11.25, 300 32 M268 0 C286.12 0.06, 299.38 8.95, 300 32 M300 32 C298.23 60.14, 300.36 92.47, 300 144.25 M300 32 C299.45 71.73, 299.36 108.33, 300 144.25 M300 144.25 C300.51 164.59, 288.06 177.97, 268 176.25 M300 144.25 C302.98 162.66, 287.49 179.31, 268 176.25 M268 176.25 C182.18 177.42, 90.09 174.52, 32 176.25 M268 176.25 C174.96 179.46, 81.11 180.37, 32 176.25 M32 176.25 C10.12 174.85, 2.61 162.51, 0 144.25 M32 176.25 C13.17 180.57, -0.04 161.03, 0 144.25 M0 144.25 C-3.85 123.13, -2.48 94.56, 0 32 M0 144.25 C-1.61 100.7, 1.17 59.39, 0 32 M0 32 C-1.61 6.71, 8.08 3.81, 32 0 M0 32 C2.43 11.89, 8.13 -3.16, 32 0" stroke="#1e1e1e" stroke-width="4" fill="none"></path></g><g stroke-linecap="round" transform="translate(475.02612974248876 1058.44494047619) rotate(0 150 126.25000000000011)"><path d="M32 0 C114.43 4.04, 195.15 5, 268 0 M32 0 C104.05 4.02, 174.74 3.96, 268 0 M268 0 C288.47 0.59, 297.21 10.72, 300 32 M268 0 C288.71 -1.71, 299.06 7.68, 300 32 M300 32 C301.52 68.26, 301.45 111.42, 300 220.5 M300 32 C294.62 82.67, 296.81 134.49, 300 220.5 M300 220.5 C298.73 243.56, 291.92 249.96, 268 252.5 M300 220.5 C298.16 244.9, 292.72 256.28, 268 252.5 M268 252.5 C198.41 253.17, 135.11 254.41, 32 252.5 M268 252.5 C174.88 252.2, 83.71 251.06, 32 252.5 M32 252.5 C13.28 249.43, 2.18 245.59, 0 220.5 M32 252.5 C10.62 247.95, -4.31 242.1, 0 220.5 M0 220.5 C1.15 170.74, 6.78 127.63, 0 32 M0 220.5 C4.25 176, 2.32 127.71, 0 32 M0 32 C-2.59 14.48, 12.78 1.06, 32 0 M0 32 C-2.53 7.51, 10.95 3.83, 32 0" stroke="#e03131" stroke-width="4" fill="none"></path></g><g transform="translate(504.17998411260595 882.81994047619) rotate(0 38.34614562988281 17.5)"><text x="38.34614562988281" y="24.528" font-family="Virgil, Segoe UI Emoji" font-size="28px" fill="#1e1e1e" text-anchor="middle" style="white-space: pre;" direction="ltr" dominant-baseline="alphabetic">main()</text></g><g transform="translate(503.34624387823095 1096.56994047619) rotate(0 106.67988586425781 12.5)"><text x="106.67988586425781" y="17.52" font-family="Virgil, Segoe UI Emoji" font-size="20px" fill="#e03131" text-anchor="middle" style="white-space: pre;" direction="ltr" dominant-baseline="alphabetic">copyPointerAsReturn()</text></g><g stroke-linecap="round" transform="translate(497.52612974248876 1150.31994047619) rotate(0 123.125 21.25)"><path d="M10.63 0 C87.04 0.01, 170.45 -0.33, 235.63 0 M10.63 0 C77.78 -0.54, 147.1 -1.21, 235.63 0 M235.63 0 C241.89 -2.6, 242.43 3.23, 246.25 10.63 M235.63 0 C238.97 2.09, 243.59 5.55, 246.25 10.63 M246.25 10.63 C248.45 14.36, 244.49 26.31, 246.25 31.88 M246.25 10.63 C247.41 15.2, 245.31 23.65, 246.25 31.88 M246.25 31.88 C249.19 42.25, 242.24 45.3, 235.63 42.5 M246.25 31.88 C248.49 36.81, 240.98 46.81, 235.63 42.5 M235.63 42.5 C167.52 39.96, 102.04 41.72, 10.63 42.5 M235.63 42.5 C176.92 41.15, 116.34 37.84, 10.63 42.5 M10.63 42.5 C-0.21 42.73, -2.16 35.24, 0 31.88 M10.63 42.5 C5.88 39.8, -3.88 42.73, 0 31.88 M0 31.88 C-1.09 27.79, 2.07 17.61, 0 10.63 M0 31.88 C1.33 28.13, -0.83 21.95, 0 10.63 M0 10.63 C0.25 6.88, 3.31 -0.24, 10.63 0 M0 10.63 C1.33 4.1, 3.2 -3.49, 10.63 0" stroke="#e03131" stroke-width="4" fill="none"></path></g><g transform="translate(544.0212164124107 1159.06994047619) rotate(0 76.62991333007812 12.5)"><text x="76.62991333007812" y="17.52" font-family="Virgil, Segoe UI Emoji" font-size="20px" fill="#e03131" text-anchor="middle" style="white-space: pre;" direction="ltr" dominant-baseline="alphabetic">underlying array</text></g><g stroke-linecap="round" transform="translate(501.811844028203 970.1413690476186) rotate(0 124.375 19.375)"><path d="M9.69 0 C94.88 -3.12, 180.31 -4.76, 239.06 0 M9.69 0 C78.47 0.35, 146.32 1.32, 239.06 0 M239.06 0 C242.27 1.82, 246.44 4.98, 248.75 9.69 M239.06 0 C248.15 -1.23, 244.54 5.89, 248.75 9.69 M248.75 9.69 C247.63 12.4, 250.26 20.09, 248.75 29.06 M248.75 9.69 C250.02 15.86, 248.37 20.2, 248.75 29.06 M248.75 29.06 C250.7 33.65, 244.02 42.5, 239.06 38.75 M248.75 29.06 C248.72 39.66, 245.15 37.76, 239.06 38.75 M239.06 38.75 C183.94 40.43, 128.59 40.07, 9.69 38.75 M239.06 38.75 C147.11 34.98, 57.42 33.3, 9.69 38.75 M9.69 38.75 C5.26 36.4, -3.38 38.8, 0 29.06 M9.69 38.75 C3.12 36.03, -3.82 33.98, 0 29.06 M0 29.06 C-4.01 19.66, 3.52 17.32, 0 9.69 M0 29.06 C0.33 24.35, 0.1 16.29, 0 9.69 M0 9.69 C1.16 3.72, 2.93 -3.04, 9.69 0 M0 9.69 C-3.2 1.1, 5.5 -1.74, 9.69 0" stroke="#f08c00" stroke-width="4" fill="none"></path></g><g transform="translate(517.3869706761523 977.0163690476186) rotate(0 108.79987335205078 12.5)"><text x="108.79987335205078" y="17.52" font-family="Virgil, Segoe UI Emoji" font-size="20px" fill="#f08c00" text-anchor="middle" style="white-space: pre;" direction="ltr" dominant-baseline="alphabetic">slice referencing array</text></g><g stroke-linecap="round"><g transform="translate(296.0975583139172 1040.2306547619044) rotate(0 63.33333333333337 0.4166666666666856)"><path d="M-1.95 0.04 C19.19 -0.06, 104.95 -0.04, 126.29 -0.21 M2.18 -2.41 C22.98 -2.16, 103.54 2.26, 123.84 2.85" stroke="#2f9e44" stroke-width="4" fill="none"></path></g><g transform="translate(296.0975583139172 1040.2306547619044) rotate(0 63.33333333333337 0.4166666666666856)"><path d="M100.03 10.11 C105.88 8.05, 111.97 4.45, 123.69 1.23 M100.58 10.11 C107.37 8.26, 115.56 4.66, 123.97 2.6" stroke="#2f9e44" stroke-width="4" fill="none"></path></g><g transform="translate(296.0975583139172 1040.2306547619044) rotate(0 63.33333333333337 0.4166666666666856)"><path d="M100.77 -6.97 C106.44 -4.29, 112.32 -3.13, 123.69 1.23 M101.31 -6.97 C107.75 -2.92, 115.69 -0.61, 123.97 2.6" stroke="#2f9e44" stroke-width="4" fill="none"></path></g></g><mask></mask><g transform="translate(292.3743018848806 1052.7306547619044) rotate(0 65.38992309570312 12.5)"><text x="65.38992309570312" y="17.52" font-family="Virgil, Segoe UI Emoji" font-size="20px" fill="#2f9e44" text-anchor="middle" style="white-space: pre;" direction="ltr" dominant-baseline="alphabetic">stack pointer</text></g><g stroke-linecap="round"><g transform="translate(502.63232505167736 987.0342261904757) rotate(0 -188.20785955935634 -28.172619047619037)"><path d="M-0.57 -1.82 C-31.39 -0.12, -122.26 19.61, -185.28 9.17 C-248.3 -1.27, -346.56 -52.18, -378.69 -64.46 M4.32 3.37 C-25.64 5.63, -117.42 24.79, -180.32 12.68 C-243.23 0.57, -340.09 -55.54, -373.09 -69.3" stroke="#f08c00" stroke-width="4" fill="none"></path></g><g transform="translate(502.63232505167736 987.0342261904757) rotate(0 -188.20785955935634 -28.172619047619037)"><path d="M-349.52 -68.65 C-355.49 -69.15, -361.55 -69.41, -372.22 -68.16 M-349.18 -67.15 C-354.86 -67.54, -362.1 -67.56, -372.44 -69.93" stroke="#f08c00" stroke-width="4" fill="none"></path></g><g transform="translate(502.63232505167736 987.0342261904757) rotate(0 -188.20785955935634 -28.172619047619037)"><path d="M-356.98 -53.26 C-360.76 -58.15, -364.68 -62.83, -372.22 -68.16 M-356.65 -51.77 C-360.15 -56.4, -365.35 -60.63, -372.44 -69.93" stroke="#f08c00" stroke-width="4" fill="none"></path></g></g><mask></mask><g transform="translate(572.7741079529378 770.1116071428569) rotate(0 49.75202178955078 22.5)"><text x="49.75202178955078" y="31.536" font-family="Virgil, Segoe UI Emoji" font-size="36px" fill="#1e1e1e" text-anchor="middle" style="white-space: pre;" direction="ltr" dominant-baseline="alphabetic">stack</text></g><g stroke-linecap="round" transform="translate(10 816.2872023809527) rotate(0 123.83928571428575 256.2500000000001)"><path d="M32 0 C71.4 0.67, 108.92 5.26, 215.68 0 M32 0 C80.25 -2.95, 132.61 -2.62, 215.68 0 M215.68 0 C235.74 1.72, 250.27 8.13, 247.68 32 M215.68 0 C235.17 3.06, 251.06 14.45, 247.68 32 M247.68 32 C249.81 160.53, 252.54 290.51, 247.68 480.5 M247.68 32 C246.7 207.22, 247.19 381.45, 247.68 480.5 M247.68 480.5 C250.29 498.76, 239.19 516.26, 215.68 512.5 M247.68 480.5 C247.64 497.28, 232.7 512.77, 215.68 512.5 M215.68 512.5 C168.13 510.99, 128.56 514.27, 32 512.5 M215.68 512.5 C172.56 512.18, 126.38 509.29, 32 512.5 M32 512.5 C8.08 516.31, 2.12 502.9, 0 480.5 M32 512.5 C8.13 509.34, 0.29 505.67, 0 480.5 M0 480.5 C0.5 348.39, -1.22 215.21, 0 32 M0 480.5 C-2.93 367.21, -1.44 252.49, 0 32 M0 32 C0.28 12.15, 9.71 -3.02, 32 0 M0 32 C0.05 13.43, 13.63 -3.21, 32 0" stroke="#1e1e1e" stroke-width="4" fill="none"></path></g><g transform="translate(95.64984566824762 752.8943452380954) rotate(0 39.6180114746094 22.5)"><text x="39.618011474609375" y="31.536" font-family="Virgil, Segoe UI Emoji" font-size="36px" fill="#1e1e1e" text-anchor="middle" style="white-space: pre;" direction="ltr" dominant-baseline="alphabetic">heap</text></g><g stroke-linecap="round" transform="translate(26.42857142857116 868.4300595238096) rotate(0 104.55357142857144 20.535714285714306)"><path d="M10.27 0 C54.86 -5.81, 103.9 -6, 198.84 0 M10.27 0 C58.44 1.8, 109.18 -0.33, 198.84 0 M198.84 0 C204.08 2.66, 212.05 6.71, 209.11 10.27 M198.84 0 C205.14 3.21, 211.35 1.27, 209.11 10.27 M209.11 10.27 C213.09 15.34, 208.63 18.45, 209.11 30.8 M209.11 10.27 C210.35 15.57, 210.14 25.83, 209.11 30.8 M209.11 30.8 C209.07 33.69, 201.94 41.3, 198.84 41.07 M209.11 30.8 C206.63 33.37, 208.02 38.37, 198.84 41.07 M198.84 41.07 C155.82 37.66, 116.19 43.22, 10.27 41.07 M198.84 41.07 C132.42 39.25, 69.65 37.88, 10.27 41.07 M10.27 41.07 C1.22 38.32, 0.25 40.98, 0 30.8 M10.27 41.07 C3.16 40.8, 1.33 38.21, 0 30.8 M0 30.8 C-1.54 26.77, -1.2 15.58, 0 10.27 M0 30.8 C-0.16 24.39, -0.78 14.99, 0 10.27 M0 10.27 C0.04 5.83, 6 -2.79, 10.27 0 M0 10.27 C-4.08 6.11, 5.67 0.29, 10.27 0" stroke="#1e1e1e" stroke-width="4" fill="none"></path></g><g transform="translate(54.35222952706448 876.4657738095239) rotate(0 76.62991333007812 12.500000000000028)"><text x="76.62991333007812" y="17.52" font-family="Virgil, Segoe UI Emoji" font-size="20px" fill="#1e1e1e" text-anchor="middle" style="white-space: pre;" direction="ltr" dominant-baseline="alphabetic">underlying array</text></g><g stroke-linecap="round"><g transform="translate(290.4368005641149 710.7232566119137) rotate(89.50395578145935 66.7863032072782 -0.5527130433112291)"><path d="M-0.81 2.57 C20.79 2.62, 108.32 1.48, 130.93 1.28 M3.95 1.5 C26.25 0.72, 114.26 -1.72, 135.9 -2.44" stroke="#1971c2" stroke-width="4" fill="none"></path></g><g transform="translate(290.4368005641149 710.7232566119137) rotate(89.50395578145935 66.7863032072782 -0.5527130433112291)"><path d="M114.51 4.93 C122.44 4.6, 130.6 -0.51, 136.16 -3.59 M113.34 6.7 C120.25 4.45, 127.14 0.73, 135.16 -1.82" stroke="#1971c2" stroke-width="4" fill="none"></path></g><g transform="translate(290.4368005641149 710.7232566119137) rotate(89.50395578145935 66.7863032072782 -0.5527130433112291)"><path d="M114 -12.16 C122.16 -6.53, 130.5 -5.69, 136.16 -3.59 M112.83 -10.39 C120.06 -7.4, 127.11 -5.87, 135.16 -1.82" stroke="#1971c2" stroke-width="4" fill="none"></path></g></g><mask></mask><g transform="translate(370.1222775866781 690.0073074246685) rotate(0.14101951646963948 78.77991485595703 12.5)"><text x="78.77991485595703" y="17.52" font-family="Virgil, Segoe UI Emoji" font-size="20px" fill="#1971c2" text-anchor="middle" style="white-space: pre;" direction="ltr" dominant-baseline="alphabetic">function returns</text></g></svg>