<svg version="1.1" xmlns="http://www.w3.org/2000/svg" viewBox="0 0 1387.5255082846186 592.9166666666664" width="2775.051016569237" height="1185.8333333333328" filter="invert(93%) hue-rotate(180deg)">
  <!-- svg-source:excalidraw -->
  
  <defs>
    <style class="style-fonts">
      @font-face {
        font-family: "Virgil";
        src: url("https://excalidraw.com/Virgil.woff2");
      }
      @font-face {
        font-family: "Cascadia";
        src: url("https://excalidraw.com/Cascadia.woff2");
      }
      @font-face {
        font-family: "Assistant";
        src: url("https://excalidraw.com/Assistant-Regular.woff2");
      }
    </style>
    
  </defs>
  <g stroke-linecap="round" transform="translate(162.55225948497656 65.20833333333303) rotate(0 178.1250000000001 256.25000000000006)"><path d="M32 0 C106.41 0.16, 174.69 -3.88, 324.25 0 M32 0 C117.52 -2.62, 202.96 -4.07, 324.25 0 M324.25 0 C348.97 -1.31, 360.24 8.87, 356.25 32 M324.25 0 C345.77 2.14, 354.93 15.23, 356.25 32 M356.25 32 C351.95 171.3, 354 313.63, 356.25 480.5 M356.25 32 C358.43 147.83, 358.67 261.22, 356.25 480.5 M356.25 480.5 C356.59 503.23, 343.66 509.85, 324.25 512.5 M356.25 480.5 C354.36 497.48, 346.31 512.27, 324.25 512.5 M324.25 512.5 C249.72 510.46, 181.7 512.57, 32 512.5 M324.25 512.5 C260.61 510.49, 197.06 510.81, 32 512.5 M32 512.5 C10.98 511.09, 3.5 499.75, 0 480.5 M32 512.5 C8.04 514.13, -1.24 504.59, 0 480.5 M0 480.5 C0.49 340.81, -2.33 197.32, 0 32 M0 480.5 C3.95 317.72, 3.66 154.64, 0 32 M0 32 C-2.58 14.61, 13.55 1.05, 32 0 M0 32 C1.58 8.49, 12.19 4.49, 32 0" stroke="#1e1e1e" stroke-width="4" fill="none"></path></g><g stroke-linecap="round" transform="translate(191.30225948497667 97.70833333333303) rotate(0 150 88.125)"><path d="M32 0 C102.14 5.1, 177.56 0.38, 268 0 M32 0 C102.27 0.3, 172.98 1.39, 268 0 M268 0 C287.93 3.5, 297.92 8.39, 300 32 M268 0 C290.97 -1.24, 302.76 11.32, 300 32 M300 32 C301.14 64.13, 295.81 105.47, 300 144.25 M300 32 C298.19 58.52, 297 81.73, 300 144.25 M300 144.25 C303.94 168.47, 290.39 177.62, 268 176.25 M300 144.25 C297.82 167.11, 293.82 172.46, 268 176.25 M268 176.25 C184.45 176.38, 103.7 171.95, 32 176.25 M268 176.25 C196.23 175.93, 126.74 175.94, 32 176.25 M32 176.25 C8.24 172.59, -1.61 163.51, 0 144.25 M32 176.25 C7.7 177.35, 3.41 165.46, 0 144.25 M0 144.25 C3.54 115.82, 3.93 92.84, 0 32 M0 144.25 C-0.7 110.72, -2 74.7, 0 32 M0 32 C-1.88 12.14, 6.74 1.48, 32 0 M0 32 C1.16 11.15, 6.88 1.44, 32 0" stroke="#1e1e1e" stroke-width="4" fill="none"></path></g><g stroke-linecap="round" transform="translate(191.30225948497667 298.33333333333303) rotate(0 150 126.25000000000011)"><path d="M32 0 C95.09 -1, 158.7 2.71, 268 0 M32 0 C122.27 4.18, 212.42 3.86, 268 0 M268 0 C288.35 -1.5, 296.48 12.99, 300 32 M268 0 C293.84 -1.86, 299.18 12.94, 300 32 M300 32 C300.23 101.02, 299.22 163.69, 300 220.5 M300 32 C300.4 94.92, 302.15 156.44, 300 220.5 M300 220.5 C300.8 244.59, 288.19 255.56, 268 252.5 M300 220.5 C298.71 243.4, 293.13 248.44, 268 252.5 M268 252.5 C193.97 256.89, 125.42 254.03, 32 252.5 M268 252.5 C218.97 254.95, 168.76 253.71, 32 252.5 M32 252.5 C13.42 255.37, -3.26 245.4, 0 220.5 M32 252.5 C8.56 255.41, 2.28 239.61, 0 220.5 M0 220.5 C-6.26 179.58, -6.24 139.75, 0 32 M0 220.5 C-2.49 147.65, 0.14 74.29, 0 32 M0 32 C0 14.13, 8.41 3.98, 32 0 M0 32 C-2.42 7.83, 15.19 -2.4, 32 0" stroke="#1e1e1e" stroke-width="4" fill="none"></path></g><g transform="translate(220.45611385509386 122.70833333333303) rotate(0 38.34614562988281 17.5)"><text x="38.34614562988281" y="24.528" font-family="Virgil, Segoe UI Emoji" font-size="28px" fill="#1e1e1e" text-anchor="middle" style="white-space: pre;" direction="ltr" dominant-baseline="alphabetic">main()</text></g><g transform="translate(219.62237362071886 336.45833333333303) rotate(0 106.67988586425781 12.5)"><text x="106.67988586425781" y="17.52" font-family="Virgil, Segoe UI Emoji" font-size="20px" fill="#1e1e1e" text-anchor="middle" style="white-space: pre;" direction="ltr" dominant-baseline="alphabetic">copyPointerAsReturn()</text></g><g stroke-linecap="round" transform="translate(213.80225948497667 390.20833333333303) rotate(0 123.125 21.25)"><path d="M10.63 0 C78.57 4.02, 142.52 0.58, 235.63 0 M10.63 0 C63.45 2.51, 120.04 3.27, 235.63 0 M235.63 0 C244.05 0.99, 247.34 4.8, 246.25 10.63 M235.63 0 C246.82 3.39, 246.36 5.28, 246.25 10.63 M246.25 10.63 C249.04 11.47, 249.96 23.6, 246.25 31.88 M246.25 10.63 C247.46 14.84, 248.01 19.91, 246.25 31.88 M246.25 31.88 C248.5 41.93, 244.67 42.82, 235.63 42.5 M246.25 31.88 C248.77 38.47, 244.69 38.69, 235.63 42.5 M235.63 42.5 C180.06 46.16, 122.44 41.62, 10.63 42.5 M235.63 42.5 C171.93 44.33, 109.55 45.55, 10.63 42.5 M10.63 42.5 C1.04 44.47, 1.11 36.18, 0 31.88 M10.63 42.5 C0.67 42.92, 1.1 38.79, 0 31.88 M0 31.88 C-2.99 23.57, 3.25 17.74, 0 10.63 M0 31.88 C-1.08 25.33, -1.45 19.88, 0 10.63 M0 10.63 C-0.27 1.12, 2.21 -3.94, 10.63 0 M0 10.63 C1.31 1.16, 0.03 0.14, 10.63 0" stroke="#1e1e1e" stroke-width="4" fill="none"></path></g><g transform="translate(260.29734615489855 398.95833333333303) rotate(0 76.62991333007812 12.5)"><text x="76.62991333007812" y="17.52" font-family="Virgil, Segoe UI Emoji" font-size="20px" fill="#1e1e1e" text-anchor="middle" style="white-space: pre;" direction="ltr" dominant-baseline="alphabetic">underlying array</text></g><g stroke-linecap="round" transform="translate(213.80225948497667 471.45833333333314) rotate(0 124.375 19.375)"><path d="M9.69 0 C91.33 -3.31, 174.84 -2.97, 239.06 0 M9.69 0 C59.99 0.04, 113.06 1.43, 239.06 0 M239.06 0 C245.35 -1.65, 249.85 5.9, 248.75 9.69 M239.06 0 C245.07 2.55, 245.08 -0.47, 248.75 9.69 M248.75 9.69 C251.41 18.78, 246.97 22.96, 248.75 29.06 M248.75 9.69 C248.09 15.5, 249.4 17.8, 248.75 29.06 M248.75 29.06 C245.32 34.27, 244.38 42.63, 239.06 38.75 M248.75 29.06 C249.74 34.94, 241.55 39.79, 239.06 38.75 M239.06 38.75 C187.76 42.11, 133.73 38.63, 9.69 38.75 M239.06 38.75 C182.74 35.31, 124.69 35.4, 9.69 38.75 M9.69 38.75 C2.85 39.87, 1.76 34.99, 0 29.06 M9.69 38.75 C7.36 41.14, -0.47 35.22, 0 29.06 M0 29.06 C0.13 22, 0.71 18.42, 0 9.69 M0 29.06 C1.3 23.78, 0.23 15.54, 0 9.69 M0 9.69 C2.61 6.8, 3.14 -0.92, 9.69 0 M0 9.69 C2.77 2.19, -0.17 2.23, 9.69 0" stroke="#f08c00" stroke-width="4" fill="none"></path></g><g transform="translate(229.3773861329259 478.33333333333314) rotate(0 108.79987335205078 12.5)"><text x="108.79987335205078" y="17.52" font-family="Virgil, Segoe UI Emoji" font-size="20px" fill="#f08c00" text-anchor="middle" style="white-space: pre;" direction="ltr" dominant-baseline="alphabetic">slice referencing array</text></g><g stroke-linecap="round" transform="translate(813.1772594849765 70.41666666666629) rotate(0 178.1250000000001 256.25000000000006)"><path d="M32 0 C94.47 0.71, 155.25 1.49, 324.25 0 M32 0 C92.55 -1.22, 154.59 -0.87, 324.25 0 M324.25 0 C347.72 3.88, 357.26 7.76, 356.25 32 M324.25 0 C344.44 -0.12, 357.49 11.33, 356.25 32 M356.25 32 C357.04 140.58, 359.52 250.18, 356.25 480.5 M356.25 32 C354.59 162.56, 354.43 291.26, 356.25 480.5 M356.25 480.5 C354.18 500.23, 348.7 510.37, 324.25 512.5 M356.25 480.5 C356.72 506.08, 349.34 516.72, 324.25 512.5 M324.25 512.5 C218.57 513.08, 110.25 511.32, 32 512.5 M324.25 512.5 C233.08 512.16, 142.23 513.4, 32 512.5 M32 512.5 C10.47 513.85, 1.63 501.84, 0 480.5 M32 512.5 C13.03 508.22, -1.13 503.51, 0 480.5 M0 480.5 C-3.29 347.66, -1.01 213.59, 0 32 M0 480.5 C2.47 382.23, 2.84 284.58, 0 32 M0 32 C3.88 11.06, 7.84 2.65, 32 0 M0 32 C1.2 6.39, 8.31 0.11, 32 0" stroke="#1e1e1e" stroke-width="4" fill="none"></path></g><g stroke-linecap="round" transform="translate(841.9272594849765 102.91666666666629) rotate(0 150 88.125)"><path d="M32 0 C90.64 1.12, 149.35 -0.65, 268 0 M32 0 C103.92 1.82, 177.62 4.1, 268 0 M268 0 C290.34 -2.91, 299.01 10.56, 300 32 M268 0 C290.58 0.67, 297.35 12.9, 300 32 M300 32 C300.86 58.4, 298.03 80.33, 300 144.25 M300 32 C297.1 70.16, 297.61 107.55, 300 144.25 M300 144.25 C303.11 163.45, 289.74 179.94, 268 176.25 M300 144.25 C303.76 169.8, 292.37 176.34, 268 176.25 M268 176.25 C203.12 178.4, 138.74 175.86, 32 176.25 M268 176.25 C199.5 177.93, 130.82 177.02, 32 176.25 M32 176.25 C12.3 176.26, 2.05 161.86, 0 144.25 M32 176.25 C9.54 177.93, -0.01 167.14, 0 144.25 M0 144.25 C3.05 120.37, -1.14 86.06, 0 32 M0 144.25 C0.83 101.51, 2.66 57.74, 0 32 M0 32 C-2.83 13.31, 11.71 -3.72, 32 0 M0 32 C-2.36 10.78, 15.08 -0.7, 32 0" stroke="#1e1e1e" stroke-width="4" fill="none"></path></g><g stroke-linecap="round" transform="translate(841.9272594849765 303.5416666666663) rotate(0 150 126.25000000000011)"><path d="M32 0 C89.92 -1.67, 154.08 -1.5, 268 0 M32 0 C89 3.17, 144.63 0.32, 268 0 M268 0 C288.34 -0.1, 301.08 11.25, 300 32 M268 0 C286.68 2.23, 296.3 7.53, 300 32 M300 32 C301.81 86.72, 303.85 140.99, 300 220.5 M300 32 C296.05 105.7, 298.64 179.94, 300 220.5 M300 220.5 C300.41 245.53, 292.6 256.17, 268 252.5 M300 220.5 C303.04 241.93, 288.17 254.5, 268 252.5 M268 252.5 C184.28 249.78, 99.47 252.09, 32 252.5 M268 252.5 C195.9 256.56, 124.65 255.99, 32 252.5 M32 252.5 C12.72 248.78, -0.98 243.29, 0 220.5 M32 252.5 C10.65 254.05, -2.4 237.52, 0 220.5 M0 220.5 C-4.14 146.11, 2.55 75.55, 0 32 M0 220.5 C1.74 167.26, -1.61 114.94, 0 32 M0 32 C1.04 6.95, 8.61 0.1, 32 0 M0 32 C4.42 9.96, 6.26 2.24, 32 0" stroke="#e03131" stroke-width="4" fill="none"></path></g><g transform="translate(871.0811138550937 127.91666666666629) rotate(0 38.34614562988281 17.5)"><text x="38.34614562988281" y="24.528" font-family="Virgil, Segoe UI Emoji" font-size="28px" fill="#1e1e1e" text-anchor="middle" style="white-space: pre;" direction="ltr" dominant-baseline="alphabetic">main()</text></g><g transform="translate(870.2473736207187 341.6666666666663) rotate(0 106.67988586425781 12.5)"><text x="106.67988586425781" y="17.52" font-family="Virgil, Segoe UI Emoji" font-size="20px" fill="#e03131" text-anchor="middle" style="white-space: pre;" direction="ltr" dominant-baseline="alphabetic">copyPointerAsReturn()</text></g><g stroke-linecap="round" transform="translate(864.4272594849765 395.4166666666663) rotate(0 123.125 21.25)"><path d="M10.63 0 C62.54 2.86, 120.45 1.89, 235.63 0 M10.63 0 C62.25 0.35, 111.95 0.93, 235.63 0 M235.63 0 C239.49 -2.72, 246.07 5.93, 246.25 10.63 M235.63 0 C244.72 -0.5, 245.12 5.39, 246.25 10.63 M246.25 10.63 C246.63 13.65, 245.05 23.92, 246.25 31.88 M246.25 10.63 C247.93 17.7, 247.61 21.15, 246.25 31.88 M246.25 31.88 C245.24 40.7, 244.96 42.43, 235.63 42.5 M246.25 31.88 C246.14 39.49, 239.11 42.06, 235.63 42.5 M235.63 42.5 C173.22 42.46, 105.93 44.02, 10.63 42.5 M235.63 42.5 C167.66 39.53, 100.53 39.48, 10.63 42.5 M10.63 42.5 C1.45 38.75, 3.24 39.91, 0 31.88 M10.63 42.5 C8.07 38.76, -2.94 42.92, 0 31.88 M0 31.88 C1.29 30.06, 0.46 17.66, 0 10.63 M0 31.88 C-1.14 24.14, 1.81 16.01, 0 10.63 M0 10.63 C-3.83 5.49, 5.43 -1.92, 10.63 0 M0 10.63 C1.68 4.2, 4.49 -3.76, 10.63 0" stroke="#e03131" stroke-width="4" fill="none"></path></g><g transform="translate(910.9223461548984 404.1666666666663) rotate(0 76.62991333007812 12.5)"><text x="76.62991333007812" y="17.52" font-family="Virgil, Segoe UI Emoji" font-size="20px" fill="#e03131" text-anchor="middle" style="white-space: pre;" direction="ltr" dominant-baseline="alphabetic">underlying array</text></g><g stroke-linecap="round" transform="translate(863.5939261516432 216.66666666666652) rotate(0 124.375 17.5)"><path d="M8.75 0 C88.03 -1.83, 172.15 -0.07, 240 0 M8.75 0 C80.11 -3.06, 154.12 -0.89, 240 0 M240 0 C247.58 -0.44, 247.77 4.52, 248.75 8.75 M240 0 C243.06 4.38, 245.19 2.89, 248.75 8.75 M248.75 8.75 C246.75 13.45, 251.84 20.3, 248.75 26.25 M248.75 8.75 C248.54 16.36, 249.97 22.43, 248.75 26.25 M248.75 26.25 C248.65 32.54, 242.71 34.62, 240 35 M248.75 26.25 C248.33 32.32, 245.98 39.05, 240 35 M240 35 C171.75 38.34, 100.32 35.77, 8.75 35 M240 35 C161.31 34.73, 85.76 36.73, 8.75 35 M8.75 35 C6.85 31.75, -2.56 35.53, 0 26.25 M8.75 35 C1.44 34.24, 0.24 33.49, 0 26.25 M0 26.25 C2.28 20.22, -3.29 10.56, 0 8.75 M0 26.25 C-2.01 21.81, 0.49 14.82, 0 8.75 M0 8.75 C1.46 3.49, 3.74 -3.27, 8.75 0 M0 8.75 C-0.64 -1.28, 0.92 -0.32, 8.75 0" stroke="#1e1e1e" stroke-width="4" fill="none"></path></g><g transform="translate(879.1690527995925 221.66666666666652) rotate(0 108.79987335205078 12.5)"><text x="108.79987335205078" y="17.52" font-family="Virgil, Segoe UI Emoji" font-size="20px" fill="#1e1e1e" text-anchor="middle" style="white-space: pre;" direction="ltr" dominant-baseline="alphabetic">slice referencing array</text></g><g stroke-linecap="round"><g transform="translate(13.802259484976531 535.8333333333331) rotate(0 63.33333333333336 0.4166666666666856)"><path d="M-0.23 2.02 C20.66 2.86, 106.49 3.46, 127.62 3.61 M-3.8 0.65 C16.59 0.91, 104.49 0.46, 125.9 0.11" stroke="#2f9e44" stroke-width="4" fill="none"></path></g><g transform="translate(13.802259484976531 535.8333333333331) rotate(0 63.33333333333336 0.4166666666666856)"><path d="M103.94 9.57 C113.46 5.46, 121.92 4.18, 126.05 0.24 M103.16 9.43 C110.35 5.08, 119.79 3, 125.66 -0.12" stroke="#2f9e44" stroke-width="4" fill="none"></path></g><g transform="translate(13.802259484976531 535.8333333333331) rotate(0 63.33333333333336 0.4166666666666856)"><path d="M103.77 -7.53 C113.27 -5.11, 121.79 0.14, 126.05 0.24 M103 -7.67 C110.27 -5.75, 119.78 -1.57, 125.66 -0.12" stroke="#2f9e44" stroke-width="4" fill="none"></path></g></g><mask></mask><g transform="translate(10.079003055940007 548.333333333333) rotate(0 65.38992309570312 12.5)"><text x="65.38992309570312" y="17.52" font-family="Virgil, Segoe UI Emoji" font-size="20px" fill="#2f9e44" text-anchor="middle" style="white-space: pre;" direction="ltr" dominant-baseline="alphabetic">stack pointer</text></g><g stroke-linecap="round"><g transform="translate(667.7263203979285 278.6949128949393) rotate(0 63.33333333333337 0.4166666666666856)"><path d="M1.16 -0.83 C21.81 -0.66, 103.46 -1.98, 124.61 -1.43 M-1.65 -3.75 C19.82 -3.08, 108.45 0.71, 129.9 0.97" stroke="#2f9e44" stroke-width="4" fill="none"></path></g><g transform="translate(667.7263203979285 278.6949128949393) rotate(0 63.33333333333337 0.4166666666666856)"><path d="M105.57 7.35 C112.34 7.18, 122.84 2.53, 128.38 -0.89 M106.37 8.87 C115.17 6.74, 124.68 2.25, 129.94 0.32" stroke="#2f9e44" stroke-width="4" fill="none"></path></g><g transform="translate(667.7263203979285 278.6949128949393) rotate(0 63.33333333333337 0.4166666666666856)"><path d="M106.08 -9.75 C112.53 -4.35, 122.87 -3.44, 128.38 -0.89 M106.88 -8.22 C115.47 -3.69, 124.77 -1.53, 129.94 0.32" stroke="#2f9e44" stroke-width="4" fill="none"></path></g></g><mask></mask><g transform="translate(664.0030639688919 291.1949128949393) rotate(0 65.38992309570312 12.5)"><text x="65.38992309570312" y="17.52" font-family="Virgil, Segoe UI Emoji" font-size="20px" fill="#2f9e44" text-anchor="middle" style="white-space: pre;" direction="ltr" dominant-baseline="alphabetic">stack pointer</text></g><g stroke-linecap="round"><g transform="translate(582.1355928183098 440.83333333333314) rotate(0 82.5 -0.4166666666666856)"><path d="M-1.2 0.37 C25.86 0.9, 137.25 2.61, 164.92 1.95 M3.34 -1.9 C29.79 -1.96, 136.04 -1.53, 162.64 -1.55" stroke="#1971c2" stroke-width="4" fill="none"></path></g><g transform="translate(582.1355928183098 440.83333333333314) rotate(0 82.5 -0.4166666666666856)"><path d="M139.4 6.9 C150.37 3.61, 155.62 2.26, 161.49 -1.5 M140.04 6 C146.82 5.39, 152.22 1.06, 162.89 -0.76" stroke="#1971c2" stroke-width="4" fill="none"></path></g><g transform="translate(582.1355928183098 440.83333333333314) rotate(0 82.5 -0.4166666666666856)"><path d="M139.43 -10.2 C150.32 -6.79, 155.55 -1.43, 161.49 -1.5 M140.08 -11.1 C146.82 -6.84, 152.22 -6.3, 162.89 -0.76" stroke="#1971c2" stroke-width="4" fill="none"></path></g></g><mask></mask><g transform="translate(586.6890112956862 453.33333333333314) rotate(0 78.77991485595703 12.5)"><text x="78.77991485595703" y="17.52" font-family="Virgil, Segoe UI Emoji" font-size="20px" fill="#1971c2" text-anchor="middle" style="white-space: pre;" direction="ltr" dominant-baseline="alphabetic">function returns</text></g><g stroke-linecap="round"><g transform="translate(467.1355928183098 493.33333333333314) rotate(0 19.583333333333314 -37.5)"><path d="M-2.36 1.34 C3.66 -4.59, 36.99 -23.43, 37.82 -35.9 C38.66 -48.37, 8.77 -66.75, 2.65 -73.49 M1.56 -0.4 C6.93 -5.97, 34.96 -20.24, 34.85 -33.21 C34.75 -46.18, 6.58 -71.33, 0.92 -78.2" stroke="#f08c00" stroke-width="4" fill="none"></path></g><g transform="translate(467.1355928183098 493.33333333333314) rotate(0 19.583333333333314 -37.5)"><path d="M24.27 -68.04 C14.02 -71.17, 8.26 -76.29, -0.02 -76.27 M23.62 -67.5 C17.9 -69.91, 12.4 -72.11, 0.8 -77.42" stroke="#f08c00" stroke-width="4" fill="none"></path></g><g transform="translate(467.1355928183098 493.33333333333314) rotate(0 19.583333333333314 -37.5)"><path d="M11.89 -56.25 C6.11 -63.53, 4.82 -72.9, -0.02 -76.27 M11.23 -55.7 C8.67 -61.04, 6.32 -66.24, 0.8 -77.42" stroke="#f08c00" stroke-width="4" fill="none"></path></g></g><mask></mask><g stroke-linecap="round"><g transform="translate(1115.2273547030604 235.0960782142232) rotate(0 52.083333333333144 92.08333333333331)"><path d="M-0.86 1.19 C16.18 16.22, 104.5 60, 104.47 90.64 C104.43 121.29, 16.92 169.56, -1.07 185.06 M3.87 -0.63 C21.64 13.46, 111.2 55.87, 110.13 85.98 C109.06 116.08, 16.44 163.35, -2.55 180.01" stroke="#f08c00" stroke-width="4" fill="none"></path></g><g transform="translate(1115.2273547030604 235.0960782142232) rotate(0 52.083333333333144 92.08333333333331)"><path d="M12.98 158.8 C7.04 167.85, 1.63 173.86, -2.94 180.37 M11.81 159.19 C8.25 165.24, 3.5 171.98, -1.79 179.71" stroke="#f08c00" stroke-width="4" fill="none"></path></g><g transform="translate(1115.2273547030604 235.0960782142232) rotate(0 52.083333333333144 92.08333333333331)"><path d="M22.55 172.97 C12.95 176.6, 3.9 177.22, -2.94 180.37 M21.38 173.36 C14.85 174.84, 7.06 177.07, -1.79 179.71" stroke="#f08c00" stroke-width="4" fill="none"></path></g></g><mask></mask><g transform="translate(1241.7456773520014 292.4999999999999) rotate(0 67.8899154663086 25)"><text x="67.8899154663086" y="17.52" font-family="Virgil, Segoe UI Emoji" font-size="20px" fill="#f08c00" text-anchor="middle" style="white-space: pre;" direction="ltr" dominant-baseline="alphabetic">points to</text><text x="67.8899154663086" y="42.519999999999996" font-family="Virgil, Segoe UI Emoji" font-size="20px" fill="#f08c00" text-anchor="middle" style="white-space: pre;" direction="ltr" dominant-baseline="alphabetic">garbage data</text></g><g transform="translate(289.0502376954257 10) rotate(0 49.75202178955081 22.5)"><text x="49.75202178955078" y="31.536" font-family="Virgil, Segoe UI Emoji" font-size="36px" fill="#1e1e1e" text-anchor="middle" style="white-space: pre;" direction="ltr" dominant-baseline="alphabetic">stack</text></g><g transform="translate(934.883571028759 20.833333333332803) rotate(0 49.75202178955078 22.5)"><text x="49.75202178955078" y="31.536" font-family="Virgil, Segoe UI Emoji" font-size="36px" fill="#1e1e1e" text-anchor="middle" style="white-space: pre;" direction="ltr" dominant-baseline="alphabetic">stack</text></g></svg>
